<svg width="512" height="512" viewBox="0 0 512 512" fill="none" xmlns="http://www.w3.org/2000/svg">
  <defs>
    <linearGradient id="bg" x1="0%" y1="0%" x2="100%" y2="100%">
      <stop offset="0%" stop-color="#1E202C" />
      <stop offset="100%" stop-color="#0E0F15" />
    </linearGradient>
    <linearGradient id="book-dark" x1="0%" y1="0%" x2="0%" y2="100%">
      <stop offset="0%" stop-color="#2D3246" />
      <stop offset="100%" stop-color="#1A1D29" />
    </linearGradient>
    <linearGradient id="book-light" x1="0%" y1="0%" x2="0%" y2="100%">
      <stop offset="0%" stop-color="#F4F5F8" />
      <stop offset="100%" stop-color="#D1D6E2" />
    </linearGradient>
    <linearGradient id="book-accent" x1="0%" y1="0%" x2="0%" y2="100%">
      <stop offset="0%" stop-color="#E63946" />
      <stop offset="100%" stop-color="#A81B26" />
    </linearGradient>
  </defs>

  <rect width="512" height="512" rx="112" fill="url(#bg)" />

  <g transform="translate(98, 126)">
    <!-- Left Book -->
    <rect x="0" y="20" width="72" height="240" rx="8" fill="url(#book-dark)" />
    <rect x="16" y="230" width="40" height="4" rx="2" fill="#15171E" />
    <rect x="16" y="40" width="40" height="4" rx="2" fill="#15171E" />
    <circle cx="36" cy="64" r="6" fill="#15171E" />

    <!-- Center Main Book (White) -->
    <rect x="92" y="0" width="76" height="260" rx="8" fill="url(#book-light)" />
    <!-- Red Bookmark / Shiori -->
    <path d="M 110 0 L 150 0 L 150 140 L 130 116 L 110 140 Z" fill="url(#book-accent)" />
    <rect x="110" y="160" width="40" height="4" rx="2" fill="#A0A5B5" />
    <rect x="110" y="180" width="30" height="4" rx="2" fill="#A0A5B5" />
    <rect x="110" y="230" width="40" height="4" rx="2" fill="#A0A5B5" />

    <!-- Right Tilted Book -->
    <g transform="translate(188, 20) rotate(14, 0, 240)">
      <rect x="0" y="0" width="72" height="240" rx="8" fill="url(#book-dark)" />
      <rect x="16" y="230" width="40" height="4" rx="2" fill="#15171E" />
      <rect x="16" y="40" width="40" height="4" rx="2" fill="#15171E" />
      <circle cx="36" cy="64" r="6" fill="#15171E" />
    </g>
  </g>
</svg>